<svg xmlns="http://www.w3.org/2000/svg" viewBox="0 0 120 120" role="img" aria-label="SDG 2 illustration">
  <rect width="120" height="120" rx="24" fill="#f0fdf4"/>
  <circle cx="90" cy="35" r="18" fill="#22c55e"/>
  <path d="M72 34c0-12 8-24 18-24 10 0 18 12 18 24 0 10-6 18-12 24-4 4-6 6-6 6s-2-2-6-6c-6-6-12-14-12-24Z" fill="#facc15"/>
  <path d="M28 84c0-14 12-26 26-26s26 12 26 26" fill="none" stroke="#16a34a" stroke-width="8" stroke-linecap="round"/>
  <path d="M43 58h24" stroke="#16a34a" stroke-width="8" stroke-linecap="round"/>
  <path d="M51 42h8" stroke="#16a34a" stroke-width="8" stroke-linecap="round"/>
</svg>